<?xml version="1.0" encoding="utf-8"?>
<!-- Generator: Adobe Illustrator 18.0.0, SVG Export Plug-In . SVG Version: 6.00 Build 0)  -->
<!DOCTYPE svg PUBLIC "-//W3C//DTD SVG 1.1//EN" "http://www.w3.org/Graphics/SVG/1.1/DTD/svg11.dtd">
<svg version="1.1" id="Layer_1" xmlns="http://www.w3.org/2000/svg" xmlns:xlink="http://www.w3.org/1999/xlink" x="0px" y="0px"
	 viewBox="0 0 1700 1400" enable-background="new 0 0 1700 1400" xml:space="preserve">
<g>
	<rect fill="#FFFFFF" width="1700" height="1400"/>
	<g>
		<g>
			<path fill="#83A5B2" d="M1482.3,1200.9H224.1c-4,0-7.3,3.3-7.3,7.3l0,0c0,4,3.3,7.3,7.3,7.3h64.6h29.1h32.9c4,0,7.3,3.3,7.3,7.3
				c0,4-3.3,7.3-7.3,7.3h-32.9h-11.7c-4,0-7.3,3.3-7.3,7.3c0,4,3.3,7.3,7.3,7.3h1004.4c4,0,7.3-3.3,7.3-7.3c0-4-3.3-7.3-7.3-7.3
				h-167.2c-4,0-7.3-3.3-7.3-7.3c0-4,3.3-7.3,7.3-7.3h49.6h12.4h277c4,0,7.3-3.3,7.3-7.3l0,0
				C1489.5,1204.1,1486.3,1200.9,1482.3,1200.9z"/>
			<path fill="#7FA3B0" d="M1358.8,1231.9h-23.7c-4,0-7.3,3.3-7.3,7.3v0c0,4,3.3,7.3,7.3,7.3h23.7c4,0,7.3-3.3,7.3-7.3v0
				C1366.1,1235.1,1362.8,1231.9,1358.8,1231.9z"/>
			<path fill="#7FA3B0" d="M276.7,1231.9h-14.4c-4,0-7.3,3.3-7.3,7.3v0c0,4,3.3,7.3,7.3,7.3h14.4c4,0,7.3-3.3,7.3-7.3v0
				C284,1235.1,280.7,1231.9,276.7,1231.9z"/>
		</g>
		<g>
			<defs>
				<path id="SVGID_1_" d="M1412.6,1200.8H246.5c-98.7-17.4-179.7-115.2-194.2-219.3s40.9-214.8,130.6-261.2
					c62.8-32.4,142.8-39,184.6-97.9c44.4-62.6,26.1-161,79.2-215.5c37.2-38.3,96.1-39.9,147.4-30.5c51.3,9.4,102.7,27.4,154.2,19.7
					c121.1-18.2,185.3-163.9,295.7-219.5c65.5-33,146.2-30.3,209.5,7.1s107.7,108.2,115.2,184.2c5.9,60.1-7.8,128.5,28.6,175.1
					c40.9,52.3,130.5,54.6,151.4,118.7c15,45.9-17,96.6-6.5,143.9c8.8,39.5,44.1,64.9,68.5,96.3c47.7,61.4,52.2,155.8,10.6,221.9
					C1580,1189.8,1488,1200.8,1412.6,1200.8z"/>
			</defs>
			<clipPath id="SVGID_2_">
				<use xlink:href="#SVGID_1_"  overflow="visible"/>
			</clipPath>
			<path clip-path="url(#SVGID_2_)" fill="#C8DFEE" d="M1412.6,1200.8H246.5c-98.7-17.4-179.7-115.2-194.2-219.3
				s40.9-214.8,130.6-261.2c62.8-32.4,142.8-39,184.6-97.9c44.4-62.6,26.1-161,79.2-215.5c37.2-38.3,96.1-39.9,147.4-30.5
				c51.3,9.4,102.7,27.4,154.2,19.7c121.1-18.2,185.3-163.9,295.7-219.5c65.5-33,146.2-30.3,209.5,7.1s107.7,108.2,115.2,184.2
				c5.9,60.1-7.8,128.5,28.6,175.1c40.9,52.3,130.5,54.6,151.4,118.7c15,45.9-17,96.6-6.5,143.9c8.8,39.5,44.1,64.9,68.5,96.3
				c47.7,61.4,52.2,155.8,10.6,221.9C1580,1189.8,1488,1200.8,1412.6,1200.8z"/>
			<g clip-path="url(#SVGID_2_)">
				<polygon fill="#83A5B2" points="1674.9,972.8 1617.9,284.2 802.6,284.2 802.6,1158.3 1633.5,1158.3 				"/>
				<rect x="562.1" y="284.2" fill="#95B9C9" width="240.6" height="874.2"/>
			</g>
			<rect x="520.2" y="242.3" clip-path="url(#SVGID_2_)" fill="#B0D0E2" width="41.9" height="959.2"/>
			<g clip-path="url(#SVGID_2_)">
				<rect x="520.2" y="242.3" fill="#B0D0E2" width="1041.3" height="41.9"/>
				<rect x="520.2" y="547.6" fill="#B0D0E2" width="1041.3" height="41.9"/>
				<rect x="520.2" y="853" fill="#B0D0E2" width="1113.3" height="41.9"/>
				<rect x="520.2" y="1158.3" fill="#B0D0E2" width="1113.3" height="41.9"/>
			</g>
			<g clip-path="url(#SVGID_2_)">
				<rect x="745.2" y="413.1" fill="#95B9C9" width="94.3" height="134.6"/>
				<rect x="875.9" y="413.1" fill="#95B9C9" width="94.3" height="134.6"/>
				<rect x="1006.5" y="413.1" fill="#95B9C9" width="94.3" height="134.6"/>
				<rect x="1137.2" y="413.1" fill="#95B9C9" width="94.3" height="134.6"/>
				<rect x="1267.9" y="413.1" fill="#95B9C9" width="94.3" height="134.6"/>
				<rect x="1398.6" y="413.1" fill="#95B9C9" width="94.3" height="134.6"/>
				<rect x="1529.3" y="413.1" fill="#95B9C9" width="94.3" height="134.6"/>
			</g>
			<g clip-path="url(#SVGID_2_)">
				<rect x="677.5" y="390.5" fill="#C8DFEE" width="94.3" height="157.2"/>
				<rect x="808.1" y="390.5" fill="#C8DFEE" width="94.3" height="157.2"/>
				<rect x="938.8" y="390.5" fill="#C8DFEE" width="94.3" height="157.2"/>
				<rect x="1069.5" y="390.5" fill="#C8DFEE" width="94.3" height="157.2"/>
				<rect x="1200.2" y="390.5" fill="#C8DFEE" width="94.3" height="157.2"/>
				<rect x="1330.9" y="390.5" fill="#C8DFEE" width="94.3" height="157.2"/>
				<rect x="1461.6" y="390.5" fill="#C8DFEE" width="94.3" height="157.2"/>
			</g>
			<g clip-path="url(#SVGID_2_)">
				<g>
					<rect x="681.2" y="708.2" fill="#C8DFEE" width="94" height="144"/>
					<polygon fill="#95B9C9" points="830,852.2 775.2,852.2 775.2,708.2 802.6,664.7 830,708.2 					"/>
					<polygon fill="#C8DFEE" points="681.2,708.2 708.6,664.7 802.6,664.7 775.2,708.2 					"/>
					<rect x="708.6" y="638.7" fill="#C8DFEE" width="94" height="26"/>
				</g>
				<g>
					<rect x="808.1" y="708.2" fill="#C8DFEE" width="94" height="144"/>
					<polygon fill="#95B9C9" points="957,852.2 902.1,852.2 902.1,708.2 929.5,664.7 957,708.2 					"/>
					<polygon fill="#C8DFEE" points="808.1,708.2 835.5,664.7 929.5,664.7 902.1,708.2 					"/>
					<rect x="835.5" y="638.7" fill="#C8DFEE" width="94" height="26"/>
				</g>
				<g>
					<rect x="935.1" y="708.2" fill="#C8DFEE" width="94" height="144"/>
					<polygon fill="#95B9C9" points="1083.9,852.2 1029.1,852.2 1029.1,708.2 1056.5,664.7 1083.9,708.2 					"/>
					<polygon fill="#C8DFEE" points="935.1,708.2 962.5,664.7 1056.5,664.7 1029.1,708.2 					"/>
					<rect x="962.5" y="638.7" fill="#C8DFEE" width="94" height="26"/>
				</g>
				<g>
					<rect x="1062" y="708.2" fill="#C8DFEE" width="94" height="144"/>
					<polygon fill="#95B9C9" points="1210.8,852.2 1156,852.2 1156,708.2 1183.4,664.7 1210.8,708.2 					"/>
					<polygon fill="#C8DFEE" points="1062,708.2 1089.4,664.7 1183.4,664.7 1156,708.2 					"/>
					<rect x="1089.4" y="638.7" fill="#C8DFEE" width="94" height="26"/>
				</g>
				<g>
					<rect x="1188.9" y="708.2" fill="#C8DFEE" width="94" height="144"/>
					<polygon fill="#95B9C9" points="1337.7,852.2 1282.9,852.2 1282.9,708.2 1310.3,664.7 1337.7,708.2 					"/>
					<polygon fill="#C8DFEE" points="1188.9,708.2 1216.3,664.7 1310.3,664.7 1282.9,708.2 					"/>
					<rect x="1216.3" y="638.7" fill="#C8DFEE" width="94" height="26"/>
				</g>
				<g>
					<rect x="1315.8" y="708.2" fill="#C8DFEE" width="94" height="144"/>
					<polygon fill="#95B9C9" points="1464.6,852.2 1409.8,852.2 1409.8,708.2 1437.2,664.7 1464.6,708.2 					"/>
					<polygon fill="#C8DFEE" points="1315.8,708.2 1343.2,664.7 1437.2,664.7 1409.8,708.2 					"/>
					<rect x="1343.2" y="638.7" fill="#C8DFEE" width="94" height="26"/>
				</g>
				<g>
					<rect x="1442.7" y="708.2" fill="#C8DFEE" width="94" height="144"/>
					<polygon fill="#95B9C9" points="1591.5,852.2 1536.7,852.2 1536.7,708.2 1564.1,664.7 1591.5,708.2 					"/>
					<polygon fill="#C8DFEE" points="1442.7,708.2 1470.1,664.7 1564.1,664.7 1536.7,708.2 					"/>
					<rect x="1470.1" y="638.7" fill="#C8DFEE" width="94" height="26"/>
				</g>
			</g>
			<g clip-path="url(#SVGID_2_)">
				<g>
					<rect x="715.1" y="930.3" fill="#95B9C9" width="22.5" height="19.4"/>
					<rect x="685.6" y="1090.5" fill="#C8DFEE" width="81.6" height="67.9"/>
					<path fill="#C8DFEE" d="M767.2,1022.8c0-18.6-12.5-34.4-29.6-39.2v-33.8h-22.5v33.8c-17.1,4.9-29.6,20.6-29.6,39.2v5.5h81.6
						V1022.8z"/>
					<rect x="685.6" y="1028.3" fill="#95B9C9" width="81.6" height="62.2"/>
				</g>
				<g>
					<rect x="818.7" y="930.3" fill="#95B9C9" width="22.5" height="19.4"/>
					<rect x="789.1" y="1090.5" fill="#C8DFEE" width="81.6" height="67.9"/>
					<path fill="#C8DFEE" d="M870.7,1022.8c0-18.6-12.5-34.4-29.6-39.2v-33.8h-22.5v33.8c-17.1,4.9-29.6,20.6-29.6,39.2v5.5h81.6
						V1022.8z"/>
					<rect x="789.1" y="1028.3" fill="#95B9C9" width="81.6" height="62.2"/>
				</g>
				<g>
					<rect x="922.2" y="930.3" fill="#95B9C9" width="22.5" height="19.4"/>
					<rect x="892.7" y="1090.5" fill="#C8DFEE" width="81.6" height="67.9"/>
					<path fill="#C8DFEE" d="M974.3,1022.8c0-18.6-12.5-34.4-29.6-39.2v-33.8h-22.5v33.8c-17.1,4.9-29.6,20.6-29.6,39.2v5.5h81.6
						V1022.8z"/>
					<rect x="892.7" y="1028.3" fill="#95B9C9" width="81.6" height="62.2"/>
				</g>
				<g>
					<rect x="1025.8" y="930.3" fill="#95B9C9" width="22.5" height="19.4"/>
					<rect x="996.2" y="1090.5" fill="#C8DFEE" width="81.6" height="67.9"/>
					<path fill="#C8DFEE" d="M1077.8,1022.8c0-18.6-12.5-34.4-29.6-39.2v-33.8h-22.5v33.8c-17.1,4.9-29.6,20.6-29.6,39.2v5.5h81.6
						V1022.8z"/>
					<rect x="996.2" y="1028.3" fill="#95B9C9" width="81.6" height="62.2"/>
				</g>
				<g>
					<rect x="1129.3" y="930.3" fill="#95B9C9" width="22.5" height="19.4"/>
					<rect x="1099.8" y="1090.5" fill="#C8DFEE" width="81.6" height="67.9"/>
					<path fill="#C8DFEE" d="M1181.4,1022.8c0-18.6-12.5-34.4-29.6-39.2v-33.8h-22.5v33.8c-17.1,4.9-29.6,20.6-29.6,39.2v5.5h81.6
						V1022.8z"/>
					<rect x="1099.8" y="1028.3" fill="#95B9C9" width="81.6" height="62.2"/>
				</g>
				<g>
					<rect x="1232.9" y="930.3" fill="#95B9C9" width="22.5" height="19.4"/>
					<rect x="1203.3" y="1090.5" fill="#C8DFEE" width="81.6" height="67.9"/>
					<path fill="#C8DFEE" d="M1284.9,1022.8c0-18.6-12.5-34.4-29.6-39.2v-33.8h-22.5v33.8c-17.1,4.9-29.6,20.6-29.6,39.2v5.5h81.6
						V1022.8z"/>
					<rect x="1203.3" y="1028.3" fill="#95B9C9" width="81.6" height="62.2"/>
				</g>
				<g>
					<rect x="1336.4" y="930.3" fill="#95B9C9" width="22.5" height="19.4"/>
					<rect x="1306.9" y="1090.5" fill="#C8DFEE" width="81.6" height="67.9"/>
					<path fill="#C8DFEE" d="M1388.5,1022.8c0-18.6-12.5-34.4-29.6-39.2v-33.8h-22.5v33.8c-17.1,4.9-29.6,20.6-29.6,39.2v5.5h81.6
						V1022.8z"/>
					<rect x="1306.9" y="1028.3" fill="#95B9C9" width="81.6" height="62.2"/>
				</g>
				<g>
					<rect x="1440" y="930.3" fill="#95B9C9" width="22.5" height="19.4"/>
					<rect x="1410.4" y="1090.5" fill="#C8DFEE" width="81.6" height="67.9"/>
					<path fill="#C8DFEE" d="M1492,1022.8c0-18.6-12.5-34.4-29.6-39.2v-33.8H1440v33.8c-17.1,4.9-29.6,20.6-29.6,39.2v5.5h81.6
						V1022.8z"/>
					<rect x="1410.4" y="1028.3" fill="#95B9C9" width="81.6" height="62.2"/>
				</g>
				<g>
					<rect x="1543.5" y="930.3" fill="#95B9C9" width="22.5" height="19.4"/>
					<rect x="1514" y="1090.5" fill="#C8DFEE" width="81.6" height="67.9"/>
					<path fill="#C8DFEE" d="M1595.6,1022.8c0-18.6-12.5-34.4-29.6-39.2v-33.8h-22.5v33.8c-17.1,4.9-29.6,20.6-29.6,39.2v5.5h81.6
						V1022.8z"/>
					<rect x="1514" y="1028.3" fill="#95B9C9" width="81.6" height="62.2"/>
				</g>
			</g>
		</g>
		<g>
			<g>
				
					<rect x="549.1" y="728.9" transform="matrix(0.9866 0.1635 -0.1635 0.9866 140.0429 -83.2355)" fill="#129DDD" width="53.3" height="160.9"/>
				<polygon fill="#5FC3F0" points="619.6,898.2 589,893.1 615.3,734.3 634.3,714.3 645.9,739.4 				"/>
				<polygon fill="#13A2E3" points="562.7,725.6 581.7,705.6 634.3,714.3 615.3,734.3 				"/>
				
					<rect x="582.7" y="693.4" transform="matrix(-0.9866 -0.1635 0.1635 -0.9866 1095.8715 1493.6708)" fill="#5FC3F0" width="53.3" height="16.7"/>
			</g>
			<g>
				
					<rect x="487.4" y="725" transform="matrix(0.9884 -0.152 0.152 0.9884 -116.4248 87.4617)" fill="#129DDD" width="53.3" height="160.9"/>
				<polygon fill="#5FC3F0" points="583.3,876.2 552.6,881 528.2,721.9 540,697 558.9,717.2 				"/>
				<polygon fill="#13A2E3" points="475.4,730 487.3,705.1 540,697 528.2,721.9 				"/>
				
					<rect x="485.8" y="684.4" transform="matrix(-0.9884 0.152 -0.152 -0.9884 1124.1592 1299.6041)" fill="#5FC3F0" width="53.3" height="16.7"/>
			</g>
			<g>
				
					<rect x="497" y="833.4" transform="matrix(0.9866 0.1635 -0.1635 0.9866 156.4264 -73.3135)" fill="#129DDD" width="53.3" height="160.9"/>
				<polygon fill="#5FC3F0" points="567.5,1002.7 536.9,997.6 563.2,838.9 582.2,818.9 593.8,843.9 				"/>
				<polygon fill="#13A2E3" points="510.6,830.1 529.6,810.1 582.2,818.9 563.2,838.9 				"/>
				
					<rect x="530.6" y="797.9" transform="matrix(-0.9866 -0.1635 0.1635 -0.9866 975.2872 1692.7826)" fill="#5FC3F0" width="53.3" height="16.7"/>
			</g>
			<g>
				<g>
					<path fill="#43A675" d="M687.4,786c15.8-38.2,16.1-82.6,0.8-120.9c-15.3-38.4-44.3-69.8-82.1-86.6
						c30.8,21.1,54.3,52.6,65.9,88.1s11.1,74.8-1.4,110C677,780.3,681.1,782.2,687.4,786z"/>
					<path fill="#2A8756" d="M652.7,792.5c29.2-29.3,46.3-70.2,46.8-111.5c0.5-41.3-14.3-81.4-42.9-111.3
						c20.4,31.3,30.2,69.3,27.4,106.6c-2.8,37.2-18.3,73.4-43.2,101.2C645.2,783.3,648.3,786.6,652.7,792.5z"/>
					<path fill="#2A8756" d="M666.8,813.8c19.5-36.5,24.1-80.6,12.6-120.3c-11.5-39.7-37.2-73.8-73.2-94.2
						c28.6,24,48.9,57.7,57,94.1c8,36.5,3.7,75.5-12.1,109.3C656.9,807.1,660.9,809.4,666.8,813.8z"/>
					<path fill="#43A675" d="M651.8,838.9c19.5-36.5,24.1-80.6,12.6-120.3s-37.2-73.8-73.2-94.2c28.6,24,48.9,57.7,57,94.1
						c8,36.5,3.7,75.5-12.1,109.3C641.9,832.2,645.8,834.5,651.8,838.9z"/>
					<path fill="#2A8756" d="M651.8,860.6c19.5-36.5,24.1-80.6,12.6-120.3s-37.2-73.8-73.2-94.2c28.6,24,48.9,57.7,57,94.1
						c8,36.5,3.7,75.5-12.1,109.3C641.9,854,645.8,856.3,651.8,860.6z"/>
					<path fill="#43A675" d="M667.3,875.3c12.2-39.5,8.3-83.7-10.5-120.5c-18.8-36.8-50.6-65.4-89.7-78.6
						c32.6,18.2,59,47.3,73.8,81.6c14.8,34.3,18,73.5,8.9,109.7C656.4,870.7,660.7,872.2,667.3,875.3z"/>
				</g>
				<g>
					<g>
						<path fill="#43A675" d="M707.9,694.5c-1.8-4.9-3.5-9.8-3.5-15c0.1-5.8,2.5-11.4,5.8-16.2s7.6-8.8,11.9-12.8
							c-2.8,4.1-5.7,8.2-7.7,12.7c-2,4.6-3,9.7-2,14.5c0.9,4.4,3.4,8.4,6,12c2.7,3.7,5.5,7.2,7.5,11.3s2.8,8.9,1.3,13.1
							c-5,0.4-9.7-2.5-12.8-6.4S709.6,699.1,707.9,694.5z"/>
						<path fill="#2A8756" d="M728.1,713.2c-2.1,0.2-3.9-1.4-5.3-3c-9.5-11.1-11.2-27.7-5.7-41.2c5.6-13.5,17.8-23.7,31.6-28.3
							c-5.5,4.6-11,9.2-15.3,14.8c-4.3,5.7-7.4,12.5-7.4,19.6c0.1,10.9,7.4,20.9,6.4,31.7C732.2,709.7,730.8,712.9,728.1,713.2z"/>
						<path fill="#43A675" d="M733.3,714.7c-3.4-1.5-5.8-4.7-7-8.1c-1.3-3.5-1.5-7.2-1.3-10.9c0.3-7.2,2-14.4,5.6-20.7
							s9-11.5,15.7-14.3c6.7-2.7,14.5-2.7,20.9,0.6c-7.9-0.5-16.3,2.8-21.7,8.6c-5.4,5.8-8,14-7,21.8c0.4,3.1,1.4,6.2,2,9.3
							c0.6,3.1,0.7,6.4-0.5,9.4C738.7,713.4,736.2,716,733.3,714.7z"/>
					</g>
					<path fill="#F16469" d="M746.7,716.9c6.9,7.8,6.5,19.4,5.7,29.8c-1.9,23.7-3.7,47.4-5.6,71.1c-0.6,7.9-1.3,16-3.9,23.5
						s-7.5,14.6-14.7,18.1c-7.1,3.5-16.7,2.8-22-3.1c-3.4-3.7-4.8-8.8-5.9-13.8c-6.2-27.8-7.8-56.7-4.6-85.1
						c1-9.2,2.6-18.4,6.5-26.7c3.9-8.3,10.5-15.8,19.1-19.1C729.8,708.4,740.6,710,746.7,716.9z"/>
				</g>
				<g>
					<g>
						<path fill="#43A675" d="M762.6,660.1c0.1-5.2,0.3-10.5,2.2-15.2c2.2-5.4,6.5-9.7,11.3-12.9c4.9-3.2,10.3-5.4,15.7-7.6
							c-4.1,2.8-8.3,5.5-11.8,9.1s-6.3,7.9-7.2,12.8c-0.8,4.4,0.1,9,1.2,13.4s2.5,8.7,2.9,13.2s-0.6,9.3-3.6,12.7
							c-4.8-1.4-8.1-5.9-9.6-10.6C762.4,670.2,762.5,665.1,762.6,660.1z"/>
						<path fill="#2A8756" d="M774.6,684.9c-2-0.6-3.1-2.7-3.8-4.7c-4.8-13.8-0.3-29.9,9.8-40.4s25.2-15.6,39.8-14.8
							c-6.8,2.3-13.6,4.6-19.7,8.2c-6.1,3.7-11.5,8.9-14,15.6c-3.9,10.1-0.7,22.2-5.6,31.9C779.7,683.2,777.3,685.7,774.6,684.9z"/>
						<path fill="#43A675" d="M779,688.3c-2.6-2.6-3.7-6.5-3.6-10.1c0.1-3.7,1.3-7.3,2.8-10.6c2.9-6.6,7.1-12.7,12.7-17.2
							c5.6-4.5,12.6-7.5,19.8-7.6c7.2-0.1,14.5,2.8,19.3,8.2c-7.2-3.3-16.2-3.3-23.3,0.1c-7.1,3.4-12.6,10.1-14.4,17.8
							c-0.8,3.1-1,6.3-1.6,9.4c-0.6,3.1-1.7,6.3-3.9,8.5C784.4,689,781.2,690.5,779,688.3z"/>
					</g>
					<path fill="#7E4CC8" d="M790.6,695.2c3.6,9.8-1,20.5-5.6,29.9c-10.4,21.4-20.8,42.8-31.1,64.1c-3.5,7.2-7,14.4-12.2,20.5
						c-5.2,6-12.3,10.8-20.2,11.5s-16.5-3.5-19.4-10.9c-1.8-4.7-1.2-10-0.5-14.9c4.3-28.2,13.4-55.7,26.7-80.9
						c4.3-8.2,9.1-16.2,15.8-22.5c6.7-6.3,15.5-10.9,24.7-10.8C778,681.1,787.4,686.5,790.6,695.2z"/>
				</g>
				<polygon fill="#FFC15F" points="761.3,771.5 672.8,1007.2 539,992.7 618.6,753.4 				"/>
			</g>
			<g>
				<path fill="#43A675" d="M490.3,819.7c11.1,15.2,8.2,36.6,1.2,54c-19.7,48.5-73.1,83.3-124.8,74.6c-16.8-2.8-33.7-10.6-42.7-25.1
					c-9-14.5-7-36.2,7.3-45.5c-13.7-5.5-27.5-11.9-38-22.5c-10.4-10.5-17-26-13.3-40.3s19.5-25.6,33.6-20.9
					c-19.6-8.1-30.7-32.6-23.8-52.6c6.9-20.1,30.6-32.6,51.1-26.9c20.4,5.7,34.4,28.6,30,49.4c4-19.8,17.3-31.9,34.3-27.8
					c16.9,4.1,28.2,21.2,30.8,38.4s-1.6,34.6-5.8,51.5c5-11.1,16.2-19.1,28.3-20.4C470.5,804.3,483.1,809.9,490.3,819.7z"/>
				<path fill="#2A8756" d="M467.3,837.2c-9.3,25.4-27.6,47.4-50.9,61.1c-11.6-18.1-22-37.1-32.5-56.2c12-24,17.7-52,16.8-78.8
					c-1,23.8-9.4,47.3-23.5,66.5c-16.2-29.5-32.9-58.7-54.3-84.5c16.4,37.9,25.7,66.3,38.1,92c-21.6-1-43.1-6.2-62.2-16.3
					c21.2,13.9,44.8,24.2,69.4,30.2c5.6,10.1,12.1,20,20.1,30.1c4.8,6.1,10,12.3,15.5,18.4c-19.2,7.9-41.1,8.9-60.9,2.7
					c20.9,11.1,46.8,13.8,69.2,6.1c9,9.1,18.7,17.5,28.8,23.9c-6.6-8-12.7-16.4-18.5-25C446.4,891.4,462.8,865.7,467.3,837.2z"/>
			</g>
			<g>
				<path fill="#43A675" d="M521.5,814.7c0.2,15.5-12,28.5-25,36.8c-36.4,23.1-88.9,20.9-119.4-9.6c-9.9-9.9-17.5-23.3-16.7-37.3
					c0.9-14,12.6-27.7,26.6-27.1c-6.6-10.3-12.8-21.2-14.7-33.2c-2-12,1.1-25.5,10.3-33.5s25.3-7.8,32.6,2
					c-9.3-14.8-5-36.5,9.2-46.7c14.2-10.2,36.1-7.2,47.2,6.4c11,13.6,9.4,35.6-3.5,47.5c12.1-11.3,26.9-13.1,36.3-2.3
					s8.8,27.7,2.3,40.5S489,780.7,478.1,790c8.7-5,20-5.1,28.8-0.1C515.6,794.9,521.4,804.7,521.5,814.7z"/>
				<path fill="#2A8756" d="M497.7,815.4c-18.4,12.6-41.2,18.6-63.4,16.7c0.9-17.7,3-35.5,5.1-53.2c19.6-10.4,36.8-26.4,48.9-44.9
					c-12.1,15.5-28.9,27.3-47.6,33.4c3.2-27.6,6-55.2,4-82.6c-7.1,33.3-14.5,56.7-18.4,80c-14-11-26-24.7-34-40.7
					c7.6,19.5,18.5,37.6,32.2,53.5c-1.1,9.5-1.5,19.2-0.9,29.8c0.3,6.4,0.8,13,1.6,19.8c-16.6-3.9-31.8-13.7-42.1-27.3
					c8.7,17.5,24.8,31.6,43.5,37.1c1.7,10.4,4.2,20.7,7.9,29.8c-0.6-8.5-0.6-17.1-0.4-25.6C457.7,841.7,481,832.4,497.7,815.4z"/>
			</g>
			<polygon fill="#FFC15F" points="280.3,819.7 314.8,968.5 487.1,987.1 509.8,841.4 			"/>
			<g>
				<path fill="#7FA3B0" d="M630.8,1143.1H280c-4.4,0-7.9-3.5-7.9-7.9c0-4.4,3.5-7.9,7.9-7.9h350.9c4.4,0,7.9,3.5,7.9,7.9
					C638.7,1139.6,635.2,1143.1,630.8,1143.1z"/>
			</g>
			<path fill="#94BCC9" d="M762.2,815l34-89.7c0.7-1.9,0.5-4.1-0.7-5.8c-1.2-1.7-3.1-2.7-5.2-2.7H251.5c-1.9,0-3.8,0.9-5,2.4
				c-1.2,1.5-1.6,3.5-1.2,5.4l58.1,251.3c0.6,2.6,2.8,4.6,5.5,4.9l369.1,39.8c0.9,0.5,2,0.8,3,0.8c0.5,0,1-0.1,1.4-0.2
				c3.4-0.8,5.5-4.2,4.7-7.6l-0.1-0.4l40.5-106.9c0.1-0.1,0.1-0.3,0.1-0.4l11.6-30.7c3.3-0.8,5.4-4.2,4.6-7.5l-0.7-2.8l18.4-48.5
				C761.9,815.9,762.1,815.4,762.2,815z M751.7,807.1H730l-18-77.7h69L751.7,807.1z M717.5,897.4h-57.1l-18-77.7H720l10.2,44.1
				L717.5,897.4z M593.3,998.6L572.8,910h77.5l22.5,97.1L593.3,998.6z M500.4,988.6L482.3,910h77.5l20.1,87.1L500.4,988.6z
				 M407.6,978.5L391.7,910h77.5l17.8,77.1L407.6,978.5z M280.3,819.7h77.5l18,77.7h-77.5L280.3,819.7z M370.9,819.7h77.5l18,77.7
				h-77.5L370.9,819.7z M427.5,729.4l18,77.7h-77.5l-18-77.7H427.5z M518,729.4l18,77.7h-77.5l-18-77.7H518z M608.6,729.4l18,77.7
				H549l-18-77.7H608.6z M538.9,819.7l18,77.7h-77.5l-18-77.7H538.9z M569.9,897.4l-18-77.7h77.5l18,77.7H569.9z M639.5,807.1
				l-18-77.7h77.5l18,77.7H639.5z M337,729.4l18,77.7h-77.5l-18-77.7H337z M301.2,910h77.5l15.5,67.1l-79.5-8.6L301.2,910z
				 M663.3,910h49.4L682,990.9L663.3,910z M733,819.7h13.9l-8.7,22.8L733,819.7z"/>
			<g>
				<path fill="#7FA3B0" d="M640.9,1127.2c-1.2,0-2.4-0.2-3.5-0.7c-5.2-2-7.8-7.7-5.8-12.9l136-358.5c9.5-25.2,34-42.1,60.9-42.1
					H989c5.5,0,10,4.5,10,10c0,5.5-4.5,10-10,10H828.4c-18.6,0-35.6,11.7-42.2,29.1l-136,358.5
					C648.7,1124.8,644.9,1127.2,640.9,1127.2z"/>
			</g>
			<g>
				<g>
					<path fill="#F5AC5B" d="M1108.1,1027.7l8.7-76.5l-61.2-15.5c-1.2,26.9-2.3,53.7-3.5,80.6
						C1068.9,1025.8,1088.8,1030,1108.1,1027.7z"/>
					<path fill="#FFC15F" d="M1052,1016.3c-2,46.7-4,93.4-6.1,140.1c-5.3,2-10.5,4.1-15.7,6.3c2.7,5.2,4.3,11,4.7,16.8h63.1
						l-5.2-18.3l15.2-133.6C1088.8,1030,1068.9,1025.8,1052,1016.3z"/>
					<path fill="#2A284F" d="M1030.3,1162.7c-14.3,6.1-28.4,12.7-43,18.2c-4.6,1.7-9.3,3.5-12.9,6.8c-3.6,3.3-5.9,8.5-4.4,13.1
						h134.1l-6-21.2h-63.1C1034.6,1173.7,1033,1167.9,1030.3,1162.7z"/>
				</g>
				<g>
					<path fill="#FFC15F" d="M1435.6,1100.1l-13.1-7l-86.4-134c-21.2,1.7-42.2,6.9-61.8,15.3l115.8,146.9c0.1,5.8-0.8,11.7-2.5,17.4
						c5.3,0.5,10.5,2.2,15,5.3C1417.2,1132.8,1429.2,1117.4,1435.6,1100.1z"/>
					<path fill="#F5AC5B" d="M1314.2,925.2l-68.2,13.4l28.2,35.8c19.6-8.3,40.5-13.5,61.8-15.3L1314.2,925.2z"/>
					<path fill="#2A284F" d="M1435.6,1100.1c-6.4,17.3-18.4,32.7-33,43.8c-4.4-3-9.6-4.8-15-5.3c-3.4,11.6-10.1,22.6-18.3,31
						c-5.5,5.7-12.6,11.8-11.6,19.6c0.7,5.8,5.7,10,10.3,13.6c38.5-18.7,70.7-52.9,86.8-92.6L1435.6,1100.1z"/>
				</g>
				<g>
					<path fill="#F16469" d="M1087.2,557.5c12.9-4,24.9-10.5,37.5-15.3c20-7.7,41.7-11.3,63.1-10.6c-1.4-6.4-2.5-12.8-3.3-19.2
						c-21.9-3.2-44.6-0.6-65.2,7.5c-13.1,5.2-25.3,12.5-38.9,16.2c-11,3-23.4,3.1-33.3-2c0.5,5.1,1.5,10.3,3.1,15.3
						c1.1,3.5,2.5,7,4,10.3C1065.1,562.3,1076.7,560.7,1087.2,557.5z"/>
					<path fill="#FF7473" d="M1100.3,579.8c13.9-5,26.7-12.8,40.5-17.9c17.1-6.3,35.8-8.3,53.9-5.9c-2.7-8.1-5-16.3-6.8-24.5
						c-21.5-0.7-43.1,2.9-63.1,10.6c-12.6,4.9-24.6,11.3-37.5,15.3c-10.6,3.3-22.2,4.8-32.8,2.3c3.3,7.2,7.3,14.1,10.6,21.4
						c0.3,0.7,0.6,1.3,0.9,2C1077,585.7,1089.3,583.7,1100.3,579.8z"/>
					<path fill="#F16469" d="M1126.1,655c18-6.9,35.2-16,53.7-21.4c14.4-4.2,30-5.9,44.4-2.5c-3.3-8.4-6.8-16.9-10.3-25.4
						c-22.7-1.6-45.8,2.1-66.7,11c-13.9,5.9-26.8,14-41.1,18.9c-9.1,3.1-19.1,4.8-28.5,3.7c0.2,8.2-0.1,16.4-0.7,24.7
						C1093.5,665.5,1110.4,661,1126.1,655z"/>
					<path fill="#F16469" d="M1105.3,605.2c14.1-5.4,26.7-14,40.8-19.5c18.4-7.1,38.9-8.4,58.1-3.8c-3.4-8.6-6.6-17.2-9.4-25.8
						c-18.1-2.4-36.8-0.4-53.9,5.9c-13.9,5.1-26.6,12.9-40.5,17.9c-11,3.9-23.3,5.9-34.4,3.2c3.7,8.4,6.3,17,8.2,25.7
						C1084.2,610.8,1095.5,608.9,1105.3,605.2z"/>
					<path fill="#FF7473" d="M1106.1,635.6c14.3-4.9,27.2-13,41.1-18.9c20.9-8.9,44-12.7,66.7-11c-3.3-7.9-6.6-15.8-9.7-23.8
						c-19.2-4.6-39.7-3.3-58.1,3.8c-14.1,5.5-26.7,14.1-40.8,19.5c-9.9,3.8-21.1,5.7-31.3,3.6c2.1,10,3.2,20.2,3.5,30.6
						C1087,640.5,1097,638.8,1106.1,635.6z"/>
					<path fill="#FF7473" d="M1080.6,536c13.6-3.7,25.8-11,38.9-16.2c20.6-8.1,43.3-10.7,65.2-7.5c-0.5-4-0.8-7.9-0.9-11.9
						c-0.1-2.8-0.3-5.6-0.6-8.2c-25.1-2.3-50.7,0.6-74.7,8.5c-11,3.6-21.7,8.3-33,10.4c-9.1,1.7-18.9,1.7-27.4-1.7
						c-1.2,8.2-1.6,16.5-0.7,24.7C1057.1,539.1,1069.6,539,1080.6,536z"/>
					<path fill="#FF7473" d="M1094.7,466.7c13.7-3.8,26.6-10,40.4-13.5c10.8-2.8,22.6-3.8,33.3-0.8c-8.2-10.9-19-18.1-30.6-22
						c-10.1,1.4-20.3,5.2-29.9,8.8c-11.8,4.4-24.5,8.7-36.8,8.1c-2.4,3.2-4.4,6.7-5.8,10.6c-1.7,3.5-3.3,7.1-4.9,10.7
						C1071.5,471.3,1083.5,469.8,1094.7,466.7z"/>
					<path fill="#F16469" d="M1075.4,511.1c11.3-2.2,22-6.8,33-10.4c24-7.9,49.5-10.8,74.7-8.5c-0.7-6.2-1.9-11.9-3.5-17.1
						c-21.2-2.9-43.1-1.5-63.7,4.2c-12.7,3.5-24.9,8.6-37.8,11.1c-8.5,1.6-17.4,2.1-25.8,0.2c-1.9,6.2-3.3,12.5-4.3,18.8
						C1056.5,512.8,1066.3,512.8,1075.4,511.1z"/>
					<path fill="#FF7473" d="M1107.8,439.3c9.6-3.6,19.8-7.4,29.9-8.8c-24.8-8.3-52.9-1.3-66.7,16.9
						C1083.3,447.9,1096.1,443.7,1107.8,439.3z"/>
					<path fill="#FF7473" d="M1078.1,490.4c12.9-2.5,25.1-7.6,37.8-11.1c20.7-5.7,42.5-7.1,63.7-4.2c-2.7-8.8-6.6-16.4-11.3-22.7
						c-10.6-3-22.4-2-33.3,0.8c-13.8,3.5-26.7,9.7-40.4,13.5c-11.1,3.1-23.2,4.6-34.3,1.9c-3.1,7.2-5.9,14.6-8.1,22
						C1060.6,492.4,1069.6,492,1078.1,490.4z"/>
					<path fill="#F16469" d="M1227.4,897.4c-24.3,6.7-47.4,16.7-71.3,24.6c-23.9,7.9-49,13.8-74,11.6c-20.2-1.8-40.5-9.4-55.3-23
						c-2.6,9.1-5.3,18.1-8.2,27c32.7,29.4,80.1,42,122.9,31.7c28-6.7,53.1-22.1,79.7-33.2c32.3-13.4,67.2-20.4,102.1-20.5
						c-2.6-9.2-6.2-18.3-10.4-27.3C1284,886.7,1255.1,889.8,1227.4,897.4z"/>
					<path fill="#F16469" d="M1154.6,892.7c21.5-7,42.5-15.8,64.4-21.7c26.1-7,53.4-9.8,80.4-8.3c-5.6-9.9-11.6-19.8-17.2-29.8
						c-30.6-2.3-61.6,0.9-91.1,9.4c-26.7,7.7-52.2,19.8-79.6,24.6c-24.2,4.3-51.3,1.8-70.7-12.6c-2.1,9.6-4.4,19.2-6.7,28.8
						c14.6,12.9,34.4,19.5,54,20.6C1110.6,905.1,1133.1,899.7,1154.6,892.7z"/>
					<path fill="#FF7473" d="M1109.1,689.9c15.4-4.1,29.7-11.6,44.6-17.2c25.8-9.8,53.8-13.9,81.3-12.2c-2.5-7.3-5.2-14.6-7.9-21.8
						c-0.9-2.5-1.9-5.1-2.9-7.6c-14.4-3.4-30.1-1.7-44.4,2.5c-18.5,5.4-35.7,14.5-53.7,21.4c-15.7,6.1-32.6,10.5-49.2,9.1
						c-0.7,8.9-1.8,17.8-3.2,26.6C1085,693.9,1097.6,693,1109.1,689.9z"/>
					<path fill="#F16469" d="M1107.5,840.6c23.1-2.9,45-11.9,67.4-18.5c30.6-9.1,62.4-13.6,94.3-13.5c-3.1-6.6-6-13.2-8.3-19.8
						c-29.2-4.4-59.3-2.9-87.9,4.3c-21.9,5.5-43,14.4-65.3,18.5c-19,3.4-39.8,2.8-56.7-5.8c-1.4,6.8-2.7,13.7-4.1,20.5
						C1063,839.7,1086.3,843.2,1107.5,840.6z"/>
					<path fill="#FF7473" d="M1141.4,969.3c-42.8,10.3-90.2-2.4-122.9-31.7c-3.3,10.1-6.9,20.1-10.7,30
						c36.6,32.1,88.6,45.4,136.1,34.9c31.9-7.1,60.6-23.9,89.8-38.3c29.3-14.5,61.1-27,93.6-24.5c-0.5-8.2-1.9-16.2-4.1-24.1
						c-34.9,0.1-69.8,7.1-102.1,20.5C1194.5,947.1,1169.4,962.5,1141.4,969.3z"/>
					<path fill="#FF7473" d="M1156.1,922c23.9-7.9,47.1-18,71.3-24.6c27.7-7.6,56.7-10.7,85.4-9.1c-4-8.6-8.6-17-13.4-25.5
						c-27-1.5-54.3,1.2-80.4,8.3c-21.9,5.9-42.8,14.6-64.4,21.7c-21.5,7-44,12.4-66.6,11.1c-19.6-1.1-39.4-7.7-54-20.6
						c-2.3,9.2-4.7,18.3-7.2,27.3c14.7,13.6,35,21.2,55.3,23C1107.1,935.7,1132.2,929.9,1156.1,922z"/>
					<path fill="#FF7473" d="M1111.5,867c27.4-4.8,52.9-16.9,79.6-24.6c29.5-8.5,60.5-11.7,91.1-9.4c-4.6-8.1-9.1-16.3-13-24.5
						c-31.9-0.1-63.8,4.5-94.3,13.5c-22.4,6.6-44.2,15.7-67.4,18.5c-21.2,2.6-44.5-0.9-60.7-14.4c-1.9,9.5-3.9,18.9-6,28.3
						C1060.2,868.8,1087.2,871.3,1111.5,867z"/>
					<path fill="#FF7473" d="M1110.5,753.2c22.1-6.2,42.5-17.4,64.6-23.5c24.7-6.8,51.1-6.9,75.8-0.4c-0.5-5.3-1.1-10.6-1.8-15.8
						c-1.2-7.8-2.8-15.4-4.8-23c-28.7-4-58.3-0.6-85.3,10c-16.8,6.6-32.5,15.9-49.8,21.2c-13.4,4.1-28.4,5.4-41.5,1.2
						c-0.8,3.8-1.6,7.5-2.4,11.3c-1.4,6.6-2.8,13.3-4.1,19.9C1076.7,759,1094.5,757.7,1110.5,753.2z"/>
					<path fill="#F16469" d="M1109.2,721.7c17.3-5.3,33-14.6,49.8-21.2c26.9-10.6,56.6-14,85.3-10c-2.6-10.1-5.8-20.1-9.3-30
						c-27.6-1.7-55.5,2.4-81.3,12.2c-14.9,5.6-29.2,13.1-44.6,17.2c-11.5,3-24.1,4-35.5,0.8c-1.7,10.8-3.8,21.6-6,32.2
						C1080.8,727.2,1095.8,725.8,1109.2,721.7z"/>
					<path fill="#F16469" d="M1122.7,778c24.6-5.6,48.3-15.2,73.1-19.9c19.2-3.7,39.9-4.1,58.1,2.1c-1.4-10.2-2.1-20.5-3-30.8
						c-24.7-6.5-51.2-6.4-75.8,0.4c-22.1,6.1-42.5,17.4-64.6,23.5c-16,4.5-33.8,5.8-49.3,0.9c-1.6,7.8-3.1,15.6-4.7,23.4
						C1077.4,784.7,1100.9,783,1122.7,778z"/>
					<path fill="#FF7473" d="M1107.6,811.4c22.3-4,43.3-12.9,65.3-18.5c28.6-7.2,58.7-8.7,87.9-4.3c-1.5-4.2-2.8-8.4-3.8-12.6
						c-1.3-5.2-2.3-10.6-3-15.9c-18.3-6.2-38.9-5.7-58.1-2.1c-24.8,4.7-48.5,14.3-73.1,19.9c-21.8,5-45.3,6.7-66.2-0.5
						c-1.9,9.4-3.7,18.8-5.6,28.2C1067.9,814.3,1088.6,814.9,1107.6,811.4z"/>
				</g>
				<path fill="#7E4CC8" d="M1065.3,457.9c-7.8,45.2,4.7,91.5,15.5,136.1s21.5,90.9,12.7,136c32.8,7.8,69.4,4.7,101.2-6.7
					c19.5-7,37.6-17.3,55.5-27.6c-2-7.2-3.7-14.8-5.7-22c-6.2-22.4-16.4-48.2-26.8-69c-10.4-20.8-25.8-61.7-33.9-104.4
					c-2.7-14.2,1-28.2-7.7-39.7c-13.5-18-33.6-31.9-56.1-32.9S1069.1,435.8,1065.3,457.9z"/>
				<path fill="#FFC15F" d="M1093.6,455.5c-13,4.7-17.3,20.6-19.8,34.2c-6.5,36.1-13.1,72.3-19.6,108.4c-43.2,39-92.7,72.6-145,98
					c-8.1-0.8-16.6-0.2-24.7-0.9c-1.7-0.2-3.5-0.3-5.1,0.2c-2.5,0.8-4.4,3-5.3,5.4c-1,2.4-1.2,5.1-1.4,7.7
					c-0.7,7.5-8.9,13.8-12.8,20.2c-0.9,1.5-1.8,3-2.2,4.7c-0.7,2.8,0.1,5.8,1.6,8.2c0,0,0,0,0,0.1c2.3,3.8,6.4,6.3,10.8,6.9
					c1.9,0.2,3.7,0.5,5.5,0.5c5.4,6.6,16.4,7.7,23.1,2.6c4.3,4.9,12.8,4.1,17.2-0.6c3.2,0.4,5.8-2.1,7.8-4.7c6-7.6,11.1-16.1,15-25
					c51.8-29.7,98.6-56.3,145.9-91.8c4.4-3.3,7.4-8.1,8.4-13.5c7.7-39.9,18.5-87.3,25.8-126.1c1.6-8.5,3.1-17.5-0.2-25.4
					C1115.2,456.6,1101.7,452.6,1093.6,455.5z"/>
				<path fill="#8D62D3" d="M1012,630l38.5-33.2c6.5-35.6,12.4-72.8,18.9-108.4c2-10.8,4.2-22.1,11.3-30.4
					c7.2-8.4,19-12.4,29.8-10.2c10.8,2.2,20,10.7,23.3,21.2c3.4,11,0.5,22.8-2.5,33.8c-11.2,42.6-22.4,85.1-33.6,127.7l-54.6,31.5
					L1012,630z"/>
				<path fill="#7E4CC8" d="M1019.7,687.7c-14.5-13.2-24.6-31.8-28.2-51.9c11.6-4.9,22.5-11.3,32.3-19.6
					c5.8,17.4,16.8,32.7,30.5,43.9C1043.2,670,1030.9,678,1019.7,687.7z"/>
				<g>
					<path fill="#FFC15F" d="M1049.4,378.2l35.6-7.2c-0.2-0.7-0.3-1.3-0.4-2c-2.1-10.4-0.2-21.3-1.7-31.8
						c-2.6-18.3-16-34.6-33.5-40.7c-17.5-6.1-36.7,1.4-52.7,10.7c-7.5,4.3-11.3,13.1-12.3,21.6s0.6,17.2,1.6,25.7s1.2,17.5-2.2,25.4
						c-1.1,2.7-2.7,5.4-2.3,8.3s3.9,3.6,9.8,3.8c4.2,5.8,5.4,12.2,8.1,18.8c2.8,6.6,7.7,13.2,14.8,14.3c7.4,1.2,14.3-4,19.8-9
						c4.4-3.9,9.1-8.2,14.6-9.8C1051.9,397.2,1052.2,387,1049.4,378.2z"/>
					<path fill="#F5AC5B" d="M1126.5,417.9c-9.1-6.3-18.2-12.7-25.8-20.6c-7.2-7.4-13.1-16.4-15.6-26.4l-35.6,7.2
						c2.9,8.8,2.5,19.1-0.7,28.1c1.5-0.5,3.1-0.7,4.7-0.7c5.1,0.1,9.9,2.9,13.4,6.6c3.5,3.7,6,8.3,8.4,12.8c2.7,5,1.9,10.8,0.5,16.4
						C1094.1,438.8,1111.8,429.5,1126.5,417.9z"/>
				</g>
				<path fill="#2A284F" d="M1183.7,500.4c-1.1-26.8-19.6-52-44.8-61s-55.7-1.3-73.6,18.6c-4.3-17.6,8.8-35.4,6.7-53.5
					c-1.4-12.5-10.6-22.6-22.6-26.3c4.8-5.3,7.5-12.4,7.5-19.5c0-4.2-1.3-9-5.1-11c-2.9-1.6-6.6-1-9.3,0.9c-2.7,1.9-4.3,5.1-4.9,8.3
					c-0.6,3.2,0.1,6.7,0.7,9.9c-5.2-4.1-9.7-9.1-12.7-15c-9,1.8-18.3,2.7-27.5,2.7c-2.9-7.1-4.3-14.9-3.7-22.5
					c-2.2,7.6-2.6,15.6-0.4,23.2c-8.1,0.9-16.8,0.9-25,0.5c-4.4-16-4.7-33.5,1-49.1s17.8-29.2,33.5-34.8c8.8-3.2,18.3-3.8,27.6-3.6
					c7,0.1,14,0.7,20.5,3.2c6.5,2.5,12.4,7.1,15.2,13.4c9.2-2,19.1,3,24.7,10.7c5.5,7.7,7.6,17.3,8.9,26.6s1.9,18.9,5,27.9
					c5.9,17,19.9,29.8,33.8,41.3s28.7,22.9,37.1,38.8C1187.3,450.9,1185.5,476.8,1183.7,500.4z"/>
			</g>
			<circle fill="#2A284F" cx="618.6" cy="1150.4" r="50.4"/>
			<path fill="#94BCC9" d="M618.6,1173.3c-12.6,0-22.9-10.3-22.9-22.9s10.3-22.9,22.9-22.9c12.6,0,22.9,10.3,22.9,22.9
				S631.2,1173.3,618.6,1173.3z"/>
			<circle fill="#2A284F" cx="356.5" cy="1150.4" r="50.4"/>
			<path fill="#94BCC9" d="M356.5,1173.3c-12.6,0-22.9-10.3-22.9-22.9s10.3-22.9,22.9-22.9c12.6,0,22.9,10.3,22.9,22.9
				S369.1,1173.3,356.5,1173.3z"/>
		</g>
	</g>
</g>
</svg>
