<?xml version="1.0" encoding="utf-8"?>
<!-- Generator: Adobe Illustrator 17.0.0, SVG Export Plug-In . SVG Version: 6.00 Build 0)  -->
<!DOCTYPE svg PUBLIC "-//W3C//DTD SVG 1.1//EN" "http://www.w3.org/Graphics/SVG/1.1/DTD/svg11.dtd">
<svg version="1.1" id="Layer_1" xmlns="http://www.w3.org/2000/svg" xmlns:xlink="http://www.w3.org/1999/xlink" x="0px" y="0px"
	 width="1400px" height="980px" viewBox="0 0 1400 980" enable-background="new 0 0 1400 980" xml:space="preserve">
<linearGradient id="SVGID_1_" gradientUnits="userSpaceOnUse" x1="1437.1763" y1="915.6089" x2="-37.1762" y2="64.3911">
	<stop  offset="0" style="stop-color:#6F52FF"/>
	<stop  offset="1" style="stop-color:#FF6EC5"/>
</linearGradient>
<rect fill-rule="evenodd" clip-rule="evenodd" fill="url(#SVGID_1_)" width="1400" height="980"/>
<path fill-rule="evenodd" clip-rule="evenodd" fill="#8548E0" d="M556.8,873h301.8c4.9,0,9.3,3,9.3,7.9v44.8c0,4.9-4.4,9.2-9.3,9.2
	H556.8c-4.9,0-8.8-4.3-8.8-9.2v-44.8C548,876,551.9,873,556.8,873L556.8,873z"/>
<polygon fill-rule="evenodd" clip-rule="evenodd" fill="#553399" points="384,0 48.7,692 1400,455.9 1400,0 "/>
<linearGradient id="SVGID_2_" gradientUnits="userSpaceOnUse" x1="48.7283" y1="346.0202" x2="1400" y2="346.0202">
	<stop  offset="0" style="stop-color:#643399"/>
	<stop  offset="1" style="stop-color:#9166FF"/>
</linearGradient>
<polygon fill-rule="evenodd" clip-rule="evenodd" fill="url(#SVGID_2_)" points="384,0 48.7,692 1400,400.3 1400,0 "/>
<linearGradient id="SVGID_3_" gradientUnits="userSpaceOnUse" x1="544" y1="896.5" x2="864" y2="896.5">
	<stop  offset="0" style="stop-color:#3DFFF2"/>
	<stop  offset="1" style="stop-color:#1C49FF"/>
</linearGradient>
<path fill-rule="evenodd" clip-rule="evenodd" fill="url(#SVGID_3_)" d="M553.1,865H855c4.9,0,9,2.9,9,7.8v44.9
	c0,4.9-4.1,10.4-9,10.4H553.1c-4.9,0-9.1-5.5-9.1-10.4v-44.9c0-4.9,4-7.8,8.9-7.8H553.1z"/>
<text transform="matrix(0.9416 -0.2002 -5.233596e-002 0.9986 472.2634 332.144)"><tspan x="0" y="0" fill="#48E6ED" font-family="'Montserrat-Bold'" font-size="222.2606" letter-spacing="-1">S</tspan><tspan x="140.7" y="0" fill="#48E6ED" font-family="'Montserrat-Bold'" font-size="222.2606" letter-spacing="-1">U</tspan><tspan x="306.3" y="0" fill="#48E6ED" font-family="'Montserrat-Bold'" font-size="222.2606">P</tspan><tspan x="456.1" y="0" fill="#48E6ED" font-family="'Montserrat-Bold'" font-size="222.2606">E</tspan><tspan x="601.4" y="0" fill="#48E6ED" font-family="'Montserrat-Bold'" font-size="222.2606">R</tspan><tspan x="762.6" y="0" fill="#48E6ED" font-family="'Montserrat-Bold'" font-size="222.2606"> </tspan></text>
<text transform="matrix(0.9416 -0.2002 -5.233596e-002 0.9986 597.2656 538.4419)"><tspan x="0" y="0" fill="#48E6ED" font-family="'Montserrat-Bold'" font-size="299.3715" letter-spacing="-2.1">S</tspan><tspan x="188.3" y="0" fill="#48E6ED" font-family="'Montserrat-Bold'" font-size="299.3715" letter-spacing="1">A</tspan><tspan x="412.8" y="0" fill="#48E6ED" font-family="'Montserrat-Bold'" font-size="299.3715">LE</tspan></text>
<text transform="matrix(0.9966 0 0 1 538.1089 729.9639)"><tspan x="0" y="0" fill="#FFFFFF" font-family="'Montserrat-Regular'" font-size="33.4195">S</tspan><tspan x="21.1" y="0" fill="#FFFFFF" font-family="'Montserrat-Regular'" font-size="33.4195">P</tspan><tspan x="43.3" y="0" fill="#FFFFFF" font-family="'Montserrat-Regular'" font-size="33.4195">E</tspan><tspan x="64.4" y="0" fill="#FFFFFF" font-family="'Montserrat-Regular'" font-size="33.4195">C</tspan><tspan x="89.1" y="0" fill="#FFFFFF" font-family="'Montserrat-Regular'" font-size="33.4195">I</tspan><tspan x="99.1" y="0" fill="#FFFFFF" font-family="'Montserrat-Regular'" font-size="33.4195">A</tspan><tspan x="123.8" y="0" fill="#FFFFFF" font-family="'Montserrat-Regular'" font-size="33.4195">L</tspan><tspan x="142.4" y="0" fill="#FFFFFF" font-family="'Montserrat-Regular'" font-size="33.4195"> </tspan><tspan x="151.1" y="0" fill="#FFFFFF" font-family="'Montserrat-Regular'" font-size="33.4195">D</tspan><tspan x="177.1" y="0" fill="#FFFFFF" font-family="'Montserrat-Regular'" font-size="33.4195">I</tspan><tspan x="187" y="0" fill="#FFFFFF" font-family="'Montserrat-Regular'" font-size="33.4195">S</tspan><tspan x="208.1" y="0" fill="#FFFFFF" font-family="'Montserrat-Regular'" font-size="33.4195" letter-spacing="-1">C</tspan><tspan x="231.6" y="0" fill="#FFFFFF" font-family="'Montserrat-Regular'" font-size="33.4195">O</tspan><tspan x="258.8" y="0" fill="#FFFFFF" font-family="'Montserrat-Regular'" font-size="33.4195">U</tspan><tspan x="283.6" y="0" fill="#FFFFFF" font-family="'Montserrat-Regular'" font-size="33.4195">N</tspan><tspan x="310.8" y="0" fill="#FFFFFF" font-family="'Montserrat-Regular'" font-size="33.4195">T</tspan></text>
<text transform="matrix(0.9966 0 0 1 37.2568 80.0996)"><tspan x="0" y="0" fill="#FFED91" font-family="'Montserrat-Bold'" font-size="74.2656">C</tspan><tspan x="54.4" y="0" fill="#FFED91" font-family="'Montserrat-Bold'" font-size="74.2656">Y</tspan><tspan x="100.3" y="0" fill="#FFED91" font-family="'Montserrat-Bold'" font-size="74.2656">B</tspan><tspan x="151.1" y="0" fill="#FFED91" font-family="'Montserrat-Bold'" font-size="74.2656">E</tspan><tspan x="199.4" y="0" fill="#FFED91" font-family="'Montserrat-Bold'" font-size="74.2656">R</tspan><tspan x="253.8" y="0" fill="#FFED91" font-family="'Montserrat-Bold'" font-size="74.2656"> </tspan></text>
<text transform="matrix(0.9966 0 0 1 34.7612 124.7119)"><tspan x="0" y="0" fill="#FFED91" font-family="'Montserrat-Bold'" font-size="54.4614">M</tspan><tspan x="52" y="0" fill="#FFED91" font-family="'Montserrat-Bold'" font-size="54.4614">O</tspan><tspan x="96.6" y="0" fill="#FFED91" font-family="'Montserrat-Bold'" font-size="54.4614">N</tspan><tspan x="141.1" y="0" fill="#FFED91" font-family="'Montserrat-Bold'" font-size="54.4614">D</tspan><tspan x="182" y="0" fill="#FFED91" font-family="'Montserrat-Bold'" font-size="54.4614" letter-spacing="-2">A</tspan><tspan x="220.4" y="0" fill="#FFED91" font-family="'Montserrat-Bold'" font-size="54.4614">Y</tspan></text>
<text transform="matrix(0.9966 0 0 1 572.626 911.915)"><tspan x="0" y="0" fill="#FFFFFF" font-family="'Montserrat-Bold'" font-size="44.5593">S</tspan><tspan x="28.4" y="0" fill="#FFFFFF" font-family="'Montserrat-Bold'" font-size="44.5593">H</tspan><tspan x="61.9" y="0" fill="#FFFFFF" font-family="'Montserrat-Bold'" font-size="44.5593">O</tspan><tspan x="99" y="0" fill="#FFFFFF" font-family="'Montserrat-Bold'" font-size="44.5593">P</tspan><tspan x="128.7" y="0" fill="#FFFFFF" font-family="'Montserrat-Bold'" font-size="44.5593"> </tspan><tspan x="139.9" y="0" fill="#FFFFFF" font-family="'Montserrat-Bold'" font-size="44.5593">N</tspan><tspan x="175.8" y="0" fill="#FFFFFF" font-family="'Montserrat-Bold'" font-size="44.5593">O</tspan><tspan x="211.7" y="0" fill="#FFFFFF" font-family="'Montserrat-Bold'" font-size="44.5593">W</tspan></text>
<text transform="matrix(0.9966 0 0 1 651.584 796.7822)"><tspan x="0" y="0" fill="#FFFFFF" font-family="'Montserrat-Bold'" font-size="65.6012">8</tspan><tspan x="42.1" y="0" fill="#FFFFFF" font-family="'Montserrat-Bold'" font-size="65.6012">0</tspan><tspan x="87.9" y="0" fill="#FFFFFF" font-family="'Montserrat-Bold'" font-size="65.6012">%</tspan><tspan x="141.2" y="0" fill="#FFFFFF" font-family="'Montserrat-Bold'" font-size="65.6012">  </tspan></text>
<text transform="matrix(0.9966 0 0 1 831.7051 785.6621)"><tspan x="0" y="0" fill="#FFFFFF" font-family="'Montserrat-Regular'" font-size="33.4195">O</tspan><tspan x="27.2" y="0" fill="#FFFFFF" font-family="'Montserrat-Regular'" font-size="33.4195">F</tspan><tspan x="47.1" y="0" fill="#FFFFFF" font-family="'Montserrat-Regular'" font-size="33.4195">F</tspan></text>
<text transform="matrix(0.9966 0 0 1 506.0288 785.6621)"><tspan x="0" y="0" fill="#FFFFFF" font-family="'Montserrat-Regular'" font-size="33.4195">U</tspan><tspan x="24.8" y="0" fill="#FFFFFF" font-family="'Montserrat-Regular'" font-size="33.4195">P</tspan><tspan x="47.1" y="0" fill="#FFFFFF" font-family="'Montserrat-Regular'" font-size="33.4195"> </tspan><tspan x="55.7" y="0" fill="#FFFFFF" font-family="'Montserrat-Regular'" font-size="33.4195">T</tspan><tspan x="75.6" y="0" fill="#FFFFFF" font-family="'Montserrat-Regular'" font-size="33.4195">O</tspan></text>
<polygon fill-rule="evenodd" clip-rule="evenodd" fill="#553399" points="0,748.8 472.3,821.4 328,980 0,980 "/>
<linearGradient id="SVGID_4_" gradientUnits="userSpaceOnUse" x1="0" y1="864.3799" x2="472.263" y2="864.3799">
	<stop  offset="0" style="stop-color:#643399"/>
	<stop  offset="1" style="stop-color:#9166FF"/>
</linearGradient>
<polygon fill-rule="evenodd" clip-rule="evenodd" fill="url(#SVGID_4_)" points="0,748.8 472.3,821.4 240,980 0,980 "/>
<polygon fill-rule="evenodd" clip-rule="evenodd" fill="#553399" points="0,748.8 395.4,672.1 212.3,980 0,980 "/>
<polygon fill-rule="evenodd" clip-rule="evenodd" fill="#553399" points="963.2,758.3 1400,734.9 1400,980 1067,980 "/>
<linearGradient id="SVGID_5_" gradientUnits="userSpaceOnUse" x1="963.2341" y1="763.8061" x2="1400" y2="763.8061">
	<stop  offset="0" style="stop-color:#643399"/>
	<stop  offset="1" style="stop-color:#9166FF"/>
</linearGradient>
<polygon fill-rule="evenodd" clip-rule="evenodd" fill="url(#SVGID_5_)" points="963.2,758.3 1400,547.6 1400,980 1122.6,980 "/>
<linearGradient id="SVGID_6_" gradientUnits="userSpaceOnUse" x1="0" y1="826.0651" x2="395.4126" y2="826.0651">
	<stop  offset="0" style="stop-color:#643399"/>
	<stop  offset="1" style="stop-color:#9166FF"/>
</linearGradient>
<polygon fill-rule="evenodd" clip-rule="evenodd" fill="url(#SVGID_6_)" points="0,748.8 395.4,672.1 124.3,980 0,980 "/>
<polygon fill-rule="evenodd" clip-rule="evenodd" fill="#553399" points="992.8,584.1 1400,547.6 1400,980 1161.5,980 "/>
<linearGradient id="SVGID_7_" gradientUnits="userSpaceOnUse" x1="992.8404" y1="763.8061" x2="1400" y2="763.8061">
	<stop  offset="0" style="stop-color:#643399"/>
	<stop  offset="1" style="stop-color:#9166FF"/>
</linearGradient>
<polygon fill-rule="evenodd" clip-rule="evenodd" fill="url(#SVGID_7_)" points="992.8,584.1 1400,547.6 1400,980 1217,980 "/>
<linearGradient id="SVGID_8_" gradientUnits="userSpaceOnUse" x1="1234.1149" y1="857.3907" x2="1334.0273" y2="857.3907">
	<stop  offset="0" style="stop-color:#3DFFF2"/>
	<stop  offset="1" style="stop-color:#1C49FF"/>
</linearGradient>
<polygon fill-rule="evenodd" clip-rule="evenodd" fill="url(#SVGID_8_)" points="1234.1,822.4 1334,847.5 1306.1,892.4 "/>
<linearGradient id="SVGID_9_" gradientUnits="userSpaceOnUse" x1="88.113" y1="228.1125" x2="184.5609" y2="228.1125">
	<stop  offset="0" style="stop-color:#3DFFF2"/>
	<stop  offset="1" style="stop-color:#1C49FF"/>
</linearGradient>
<polygon fill-rule="evenodd" clip-rule="evenodd" fill="url(#SVGID_9_)" points="95.8,192.4 184.6,263.9 88.1,237.3 "/>
<linearGradient id="SVGID_10_" gradientUnits="userSpaceOnUse" x1="38.7692" y1="422.3065" x2="222.0413" y2="422.3065">
	<stop  offset="0" style="stop-color:#3DFFF2"/>
	<stop  offset="1" style="stop-color:#1C49FF"/>
</linearGradient>
<polygon fill-rule="evenodd" clip-rule="evenodd" fill="url(#SVGID_10_)" points="38.8,398.6 222,446 53.4,441.7 "/>
<linearGradient id="SVGID_11_" gradientUnits="userSpaceOnUse" x1="114.7097" y1="619.4781" x2="348.8654" y2="619.4781">
	<stop  offset="0" style="stop-color:#3DFFF2"/>
	<stop  offset="1" style="stop-color:#1C49FF"/>
</linearGradient>
<polygon fill-rule="evenodd" clip-rule="evenodd" fill="url(#SVGID_11_)" points="114.7,613.6 348.9,582.3 129.3,656.7 "/>
<linearGradient id="SVGID_12_" gradientUnits="userSpaceOnUse" x1="1116.4945" y1="763.788" x2="1274.6047" y2="763.788">
	<stop  offset="0" style="stop-color:#3DFFF2"/>
	<stop  offset="1" style="stop-color:#1C49FF"/>
</linearGradient>
<polygon fill-rule="evenodd" clip-rule="evenodd" fill="url(#SVGID_12_)" points="1116.5,742.7 1266.4,748.4 1274.6,784.8 "/>
<linearGradient id="SVGID_13_" gradientUnits="userSpaceOnUse" x1="991.5251" y1="633.5956" x2="1172.9075" y2="633.5956">
	<stop  offset="0" style="stop-color:#3DFFF2"/>
	<stop  offset="1" style="stop-color:#1C49FF"/>
</linearGradient>
<polygon fill-rule="evenodd" clip-rule="evenodd" fill="url(#SVGID_13_)" points="991.5,665.8 1172.9,601 1167.2,666.2 "/>
<text transform="matrix(0.9416 -0.2002 -5.233596e-002 0.9986 461.9127 322.157)"><tspan x="0" y="0" fill="#FFFFFF" font-family="'Montserrat-Bold'" font-size="222.2606" letter-spacing="-1">S</tspan><tspan x="140.7" y="0" fill="#FFFFFF" font-family="'Montserrat-Bold'" font-size="222.2606" letter-spacing="-1">U</tspan><tspan x="306.3" y="0" fill="#FFFFFF" font-family="'Montserrat-Bold'" font-size="222.2606">P</tspan><tspan x="456.1" y="0" fill="#FFFFFF" font-family="'Montserrat-Bold'" font-size="222.2606">E</tspan><tspan x="601.4" y="0" fill="#FFFFFF" font-family="'Montserrat-Bold'" font-size="222.2606">R</tspan><tspan x="762.6" y="0" fill="#FFFFFF" font-family="'Montserrat-Bold'" font-size="222.2606"> </tspan></text>
<text transform="matrix(0.9416 -0.2002 -5.233596e-002 0.9986 586.9149 528.455)"><tspan x="0" y="0" fill="#FFFFFF" font-family="'Montserrat-Bold'" font-size="299.3715" letter-spacing="-2.1">S</tspan><tspan x="188.3" y="0" fill="#FFFFFF" font-family="'Montserrat-Bold'" font-size="299.3715" letter-spacing="1">A</tspan><tspan x="412.8" y="0" fill="#FFFFFF" font-family="'Montserrat-Bold'" font-size="299.3715">LE</tspan></text>
</svg>
